<svg width="40" height="40" viewBox="0 0 40 40" fill="none" xmlns="http://www.w3.org/2000/svg">
<path d="M9.16667 32.5C11.6667 30.8333 15 30 16.6667 28.3333C18.3333 26.6667 13.3333 26.6667 13.3333 18.3333C13.3333 10 20 10 20 10C20 10 26.6667 10 26.6667 18.3333C26.6667 26.6667 21.6667 26.6667 23.3333 28.3333C25 30 28.3333 30.8333 30.8333 32.5" stroke="#EBEBEB" stroke-width="1.5" stroke-linecap="round"/>
<path fill-rule="evenodd" clip-rule="evenodd" d="M20 36.6666C29.2047 36.6666 36.6667 29.2047 36.6667 20C36.6667 10.7952 29.2047 3.33331 20 3.33331C10.7952 3.33331 3.33333 10.7952 3.33333 20C3.33333 29.2047 10.7952 36.6666 20 36.6666Z" stroke="#EBEBEB" stroke-width="1.5"/>
</svg>
