<svg width="58" height="40" viewBox="0 0 58 40" fill="none" xmlns="http://www.w3.org/2000/svg">
<path d="M27 15H35" stroke="#5012B5" stroke-width="1.5" stroke-linecap="round"/>
<path d="M27 20H35" stroke="#5012B5" stroke-width="1.5" stroke-linecap="round"/>
<path d="M27 25H35" stroke="#5012B5" stroke-width="1.5" stroke-linecap="round"/>
<path fill-rule="evenodd" clip-rule="evenodd" d="M23 16C23.5523 16 24 15.5523 24 15C24 14.4477 23.5523 14 23 14C22.4477 14 22 14.4477 22 15C22 15.5523 22.4477 16 23 16Z" fill="#5012B5"/>
<path fill-rule="evenodd" clip-rule="evenodd" d="M23 21C23.5523 21 24 20.5523 24 20C24 19.4477 23.5523 19 23 19C22.4477 19 22 19.4477 22 20C22 20.5523 22.4477 21 23 21Z" fill="#5012B5"/>
<path fill-rule="evenodd" clip-rule="evenodd" d="M23 26C23.5523 26 24 25.5523 24 25C24 24.4477 23.5523 24 23 24C22.4477 24 22 24.4477 22 25C22 25.5523 22.4477 26 23 26Z" fill="#5012B5"/>
</svg>
