<svg width="17" height="16" viewBox="0 0 17 16" fill="none" xmlns="http://www.w3.org/2000/svg">
<path fill-rule="evenodd" clip-rule="evenodd" d="M7.67425 13.6104C7.8612 13.8265 8.18567 13.8265 8.37263 13.6104C9.34682 12.4846 12.0234 9.10847 12.0234 6C12.0234 3.79086 10.2326 2 8.02344 2C5.8143 2 4.02344 3.79086 4.02344 6C4.02344 9.10847 6.70006 12.4846 7.67425 13.6104Z" stroke="#2E2885" stroke-width="1.5"/>
<path fill-rule="evenodd" clip-rule="evenodd" d="M8.02344 7.33335C8.75982 7.33335 9.35678 6.7364 9.35678 6.00002C9.35678 5.26364 8.75982 4.66669 8.02344 4.66669C7.28706 4.66669 6.69011 5.26364 6.69011 6.00002C6.69011 6.7364 7.28706 7.33335 8.02344 7.33335Z" stroke="#2E2885" stroke-width="1.5"/>
</svg>
