<svg width="17" height="16" viewBox="0 0 17 16" fill="none" xmlns="http://www.w3.org/2000/svg">
<path fill-rule="evenodd" clip-rule="evenodd" d="M7.66253 13.6104C7.84948 13.8265 8.17396 13.8265 8.36091 13.6104C9.3351 12.4846 12.0117 9.10847 12.0117 6C12.0117 3.79086 10.2209 2 8.01172 2C5.80258 2 4.01172 3.79086 4.01172 6C4.01172 9.10847 6.68834 12.4846 7.66253 13.6104Z" stroke="#2E2885" stroke-width="1.5"/>
<path fill-rule="evenodd" clip-rule="evenodd" d="M8.01172 7.33334C8.7481 7.33334 9.34506 6.73639 9.34506 6.00001C9.34506 5.26363 8.7481 4.66667 8.01172 4.66667C7.27534 4.66667 6.67839 5.26363 6.67839 6.00001C6.67839 6.73639 7.27534 7.33334 8.01172 7.33334Z" stroke="#2E2885" stroke-width="1.5"/>
</svg>
