<svg width="17" height="16" viewBox="0 0 17 16" fill="none" xmlns="http://www.w3.org/2000/svg">
<path fill-rule="evenodd" clip-rule="evenodd" d="M7.68597 13.6104C7.87292 13.8265 8.19739 13.8265 8.38435 13.6104C9.35853 12.4846 12.0352 9.10847 12.0352 6C12.0352 3.79086 10.2443 2 8.03516 2C5.82602 2 4.03516 3.79086 4.03516 6C4.03516 9.10847 6.71178 12.4846 7.68597 13.6104Z" stroke="#2E2885" stroke-width="1.5"/>
<path fill-rule="evenodd" clip-rule="evenodd" d="M8.03515 7.33334C8.77153 7.33334 9.36848 6.73639 9.36848 6.00001C9.36848 5.26363 8.77153 4.66667 8.03515 4.66667C7.29877 4.66667 6.70181 5.26363 6.70181 6.00001C6.70181 6.73639 7.29877 7.33334 8.03515 7.33334Z" stroke="#2E2885" stroke-width="1.5"/>
</svg>
